# xmcd
#
# Track frame offsets: 
#        150
#        24452
#        50720
#        86125
#        112810
#        131600
#        155575
#        172840
#        193975
#        219677
#        236610
#        257950
#        282742
#
# Disc length: 4095 seconds
#
# Revision: 0
# Processed by: cddbd v1.4PL0 Copyright (c) Steve Scherf et al.
# Submitted via: ExactAudioCopy v0.95a3
#
DISCID=c30ffd0d
DTITLE=Eric Clapton - Pilgrim
DYEAR=1900
DGENRE=Blues
TTITLE0=Eric Clapton Pilgrim01
TTITLE1=Eric Clapton Pilgrim02
TTITLE2=Eric Clapton Pilgrim03
TTITLE3=Eric Clapton Pilgrim04
TTITLE4=Eric Clapton Pilgrim05
TTITLE5=Eric Clapton Pilgrim06
TTITLE6=Eric Clapton Pilgrim07
TTITLE7=Eric Clapton Pilgrim08
TTITLE8=Eric Clapton Pilgrim09
TTITLE9=Eric Clapton Pilgrim10
TTITLE10=Eric Clapton Pilgrim11
TTITLE11=Eric Clapton Pilgrim12
TTITLE12=Eric Clapton Pilgrim13
EXTD=
EXTT0=
EXTT1=
EXTT2=
EXTT3=
EXTT4=
EXTT5=
EXTT6=
EXTT7=
EXTT8=
EXTT9=
EXTT10=
EXTT11=
EXTT12=
PLAYORDER=
